<mxfile host="app.diagrams.net" modified="2023-10-11T10:11:56.958Z" agent="Mozilla/5.0 (Windows NT 10.0; Win64; x64) AppleWebKit/537.36 (KHTML, like Gecko) Chrome/117.0.0.0 Safari/537.36" etag="NYctGh4C8lKaYhuAj35Z" version="22.0.4" type="device">
  <diagram id="R2lEEEUBdFMjLlhIrx00" name="Page-1">
    <mxGraphModel dx="2759" dy="2245" grid="1" gridSize="10" guides="1" tooltips="1" connect="1" arrows="1" fold="1" page="1" pageScale="1" pageWidth="850" pageHeight="1100" math="0" shadow="0" extFonts="Permanent Marker^https://fonts.googleapis.com/css?family=Permanent+Marker">
      <root>
        <mxCell id="0" />
        <mxCell id="1" parent="0" />
        <mxCell id="kPW2HSagZ7D2L_FUB9F4-1" value="users" style="swimlane;childLayout=stackLayout;horizontal=1;startSize=50;horizontalStack=0;rounded=1;fontSize=14;fontStyle=0;strokeWidth=2;resizeParent=0;resizeLast=1;shadow=0;dashed=0;align=center;arcSize=4;whiteSpace=wrap;html=1;" parent="1" vertex="1">
          <mxGeometry y="-120" width="160" height="250" as="geometry">
            <mxRectangle x="-60" y="30" width="70" height="50" as="alternateBounds" />
          </mxGeometry>
        </mxCell>
        <mxCell id="kPW2HSagZ7D2L_FUB9F4-2" value="firstName&lt;br&gt;lastName&lt;br&gt;email&lt;br&gt;password&lt;br&gt;address&lt;br&gt;phone&lt;br&gt;title&lt;br&gt;bio&lt;br&gt;enabled&lt;br&gt;nonLocked&lt;br&gt;usingMFA&lt;br&gt;createdDate&lt;br&gt;imageUrl" style="align=left;strokeColor=none;fillColor=none;spacingLeft=4;fontSize=12;verticalAlign=top;resizable=0;rotatable=0;part=1;html=1;" parent="kPW2HSagZ7D2L_FUB9F4-1" vertex="1">
          <mxGeometry y="50" width="160" height="200" as="geometry" />
        </mxCell>
        <mxCell id="kPW2HSagZ7D2L_FUB9F4-3" value="userroles" style="swimlane;childLayout=stackLayout;horizontal=1;startSize=50;horizontalStack=0;rounded=1;fontSize=14;fontStyle=0;strokeWidth=2;resizeParent=0;resizeLast=1;shadow=0;dashed=0;align=center;arcSize=4;whiteSpace=wrap;html=1;" parent="1" vertex="1">
          <mxGeometry x="290" y="-260" width="160" height="120" as="geometry">
            <mxRectangle x="240" y="30" width="70" height="50" as="alternateBounds" />
          </mxGeometry>
        </mxCell>
        <mxCell id="kPW2HSagZ7D2L_FUB9F4-4" value="userId&lt;br&gt;roleId" style="align=left;strokeColor=none;fillColor=none;spacingLeft=4;fontSize=12;verticalAlign=top;resizable=0;rotatable=0;part=1;html=1;" parent="kPW2HSagZ7D2L_FUB9F4-3" vertex="1">
          <mxGeometry y="50" width="160" height="70" as="geometry" />
        </mxCell>
        <mxCell id="KlasFGh7atZoeb_XZy3V-3" value="userevents" style="swimlane;childLayout=stackLayout;horizontal=1;startSize=50;horizontalStack=0;rounded=1;fontSize=14;fontStyle=0;strokeWidth=2;resizeParent=0;resizeLast=1;shadow=0;dashed=0;align=center;arcSize=4;whiteSpace=wrap;html=1;" vertex="1" parent="1">
          <mxGeometry x="280" y="200" width="160" height="130" as="geometry">
            <mxRectangle x="-60" y="30" width="70" height="50" as="alternateBounds" />
          </mxGeometry>
        </mxCell>
        <mxCell id="KlasFGh7atZoeb_XZy3V-4" value="userId&lt;br&gt;eventId&lt;br&gt;device&lt;br&gt;ipAddress&lt;br&gt;createdAt" style="align=left;strokeColor=none;fillColor=none;spacingLeft=4;fontSize=12;verticalAlign=top;resizable=0;rotatable=0;part=1;html=1;" vertex="1" parent="KlasFGh7atZoeb_XZy3V-3">
          <mxGeometry y="50" width="160" height="80" as="geometry" />
        </mxCell>
        <mxCell id="KlasFGh7atZoeb_XZy3V-5" value="twofactorveryfications" style="swimlane;childLayout=stackLayout;horizontal=1;startSize=50;horizontalStack=0;rounded=1;fontSize=14;fontStyle=0;strokeWidth=2;resizeParent=0;resizeLast=1;shadow=0;dashed=0;align=center;arcSize=4;whiteSpace=wrap;html=1;" vertex="1" parent="1">
          <mxGeometry x="-270" y="40" width="160" height="120" as="geometry">
            <mxRectangle x="-60" y="30" width="70" height="50" as="alternateBounds" />
          </mxGeometry>
        </mxCell>
        <mxCell id="KlasFGh7atZoeb_XZy3V-6" value="userId&lt;br&gt;code&lt;br&gt;expirationDate" style="align=left;strokeColor=none;fillColor=none;spacingLeft=4;fontSize=12;verticalAlign=top;resizable=0;rotatable=0;part=1;html=1;" vertex="1" parent="KlasFGh7atZoeb_XZy3V-5">
          <mxGeometry y="50" width="160" height="70" as="geometry" />
        </mxCell>
        <mxCell id="KlasFGh7atZoeb_XZy3V-7" value="roles" style="swimlane;childLayout=stackLayout;horizontal=1;startSize=50;horizontalStack=0;rounded=1;fontSize=14;fontStyle=0;strokeWidth=2;resizeParent=0;resizeLast=1;shadow=0;dashed=0;align=center;arcSize=4;whiteSpace=wrap;html=1;" vertex="1" parent="1">
          <mxGeometry x="560" y="-120" width="160" height="120" as="geometry">
            <mxRectangle x="-60" y="30" width="70" height="50" as="alternateBounds" />
          </mxGeometry>
        </mxCell>
        <mxCell id="KlasFGh7atZoeb_XZy3V-8" value="name&lt;br&gt;permissions" style="align=left;strokeColor=none;fillColor=none;spacingLeft=4;fontSize=12;verticalAlign=top;resizable=0;rotatable=0;part=1;html=1;" vertex="1" parent="KlasFGh7atZoeb_XZy3V-7">
          <mxGeometry y="50" width="160" height="70" as="geometry" />
        </mxCell>
        <mxCell id="KlasFGh7atZoeb_XZy3V-9" value="resetpasswordveryfications" style="swimlane;childLayout=stackLayout;horizontal=1;startSize=50;horizontalStack=0;rounded=1;fontSize=14;fontStyle=0;strokeWidth=2;resizeParent=0;resizeLast=1;shadow=0;dashed=0;align=center;arcSize=4;whiteSpace=wrap;html=1;" vertex="1" parent="1">
          <mxGeometry x="-280" y="-130" width="180" height="120" as="geometry">
            <mxRectangle x="-60" y="30" width="70" height="50" as="alternateBounds" />
          </mxGeometry>
        </mxCell>
        <mxCell id="KlasFGh7atZoeb_XZy3V-10" value="userId&lt;br&gt;url&lt;br&gt;expirationDate" style="align=left;strokeColor=none;fillColor=none;spacingLeft=4;fontSize=12;verticalAlign=top;resizable=0;rotatable=0;part=1;html=1;" vertex="1" parent="KlasFGh7atZoeb_XZy3V-9">
          <mxGeometry y="50" width="180" height="70" as="geometry" />
        </mxCell>
        <mxCell id="KlasFGh7atZoeb_XZy3V-11" value="events" style="swimlane;childLayout=stackLayout;horizontal=1;startSize=50;horizontalStack=0;rounded=1;fontSize=14;fontStyle=0;strokeWidth=2;resizeParent=0;resizeLast=1;shadow=0;dashed=0;align=center;arcSize=4;whiteSpace=wrap;html=1;" vertex="1" parent="1">
          <mxGeometry x="580" y="150" width="160" height="120" as="geometry">
            <mxRectangle x="-60" y="30" width="70" height="50" as="alternateBounds" />
          </mxGeometry>
        </mxCell>
        <mxCell id="KlasFGh7atZoeb_XZy3V-12" value="type" style="align=left;strokeColor=none;fillColor=none;spacingLeft=4;fontSize=12;verticalAlign=top;resizable=0;rotatable=0;part=1;html=1;" vertex="1" parent="KlasFGh7atZoeb_XZy3V-11">
          <mxGeometry y="50" width="160" height="70" as="geometry" />
        </mxCell>
        <mxCell id="KlasFGh7atZoeb_XZy3V-13" value="accountveryfications" style="swimlane;childLayout=stackLayout;horizontal=1;startSize=50;horizontalStack=0;rounded=1;fontSize=14;fontStyle=0;strokeWidth=2;resizeParent=0;resizeLast=1;shadow=0;dashed=0;align=center;arcSize=4;whiteSpace=wrap;html=1;" vertex="1" parent="1">
          <mxGeometry x="-280" y="-300" width="160" height="120" as="geometry">
            <mxRectangle x="-60" y="30" width="70" height="50" as="alternateBounds" />
          </mxGeometry>
        </mxCell>
        <mxCell id="KlasFGh7atZoeb_XZy3V-14" value="userId&lt;br&gt;url" style="align=left;strokeColor=none;fillColor=none;spacingLeft=4;fontSize=12;verticalAlign=top;resizable=0;rotatable=0;part=1;html=1;" vertex="1" parent="KlasFGh7atZoeb_XZy3V-13">
          <mxGeometry y="50" width="160" height="70" as="geometry" />
        </mxCell>
        <mxCell id="KlasFGh7atZoeb_XZy3V-17" value="" style="edgeStyle=entityRelationEdgeStyle;fontSize=12;html=1;endArrow=ERoneToMany;rounded=0;entryX=-0.003;entryY=0.309;entryDx=0;entryDy=0;entryPerimeter=0;" edge="1" parent="1" source="kPW2HSagZ7D2L_FUB9F4-1" target="KlasFGh7atZoeb_XZy3V-3">
          <mxGeometry width="100" height="100" relative="1" as="geometry">
            <mxPoint x="210" y="30" as="sourcePoint" />
            <mxPoint x="180" y="170" as="targetPoint" />
          </mxGeometry>
        </mxCell>
        <mxCell id="KlasFGh7atZoeb_XZy3V-23" value="" style="edgeStyle=entityRelationEdgeStyle;fontSize=12;html=1;endArrow=ERoneToMany;rounded=0;entryX=1.006;entryY=0.325;entryDx=0;entryDy=0;entryPerimeter=0;exitX=-0.001;exitY=0.13;exitDx=0;exitDy=0;exitPerimeter=0;" edge="1" parent="1" source="kPW2HSagZ7D2L_FUB9F4-1" target="KlasFGh7atZoeb_XZy3V-9">
          <mxGeometry width="100" height="100" relative="1" as="geometry">
            <mxPoint x="-80" as="sourcePoint" />
            <mxPoint x="40" y="235" as="targetPoint" />
          </mxGeometry>
        </mxCell>
        <mxCell id="KlasFGh7atZoeb_XZy3V-24" value="" style="edgeStyle=entityRelationEdgeStyle;fontSize=12;html=1;endArrow=ERoneToMany;rounded=0;entryX=1;entryY=0.25;entryDx=0;entryDy=0;exitX=0.005;exitY=0.167;exitDx=0;exitDy=0;exitPerimeter=0;" edge="1" parent="1" source="kPW2HSagZ7D2L_FUB9F4-1" target="KlasFGh7atZoeb_XZy3V-5">
          <mxGeometry width="100" height="100" relative="1" as="geometry">
            <mxPoint x="7" y="-77" as="sourcePoint" />
            <mxPoint x="-89" y="-81" as="targetPoint" />
          </mxGeometry>
        </mxCell>
        <mxCell id="KlasFGh7atZoeb_XZy3V-25" value="" style="edgeStyle=entityRelationEdgeStyle;fontSize=12;html=1;endArrow=ERoneToMany;rounded=0;entryX=-0.019;entryY=0.4;entryDx=0;entryDy=0;entryPerimeter=0;exitX=1.012;exitY=0.14;exitDx=0;exitDy=0;exitPerimeter=0;" edge="1" parent="1" source="kPW2HSagZ7D2L_FUB9F4-1" target="kPW2HSagZ7D2L_FUB9F4-3">
          <mxGeometry width="100" height="100" relative="1" as="geometry">
            <mxPoint x="10" y="-77" as="sourcePoint" />
            <mxPoint x="-89" y="-81" as="targetPoint" />
          </mxGeometry>
        </mxCell>
        <mxCell id="KlasFGh7atZoeb_XZy3V-26" value="" style="edgeStyle=entityRelationEdgeStyle;fontSize=12;html=1;endArrow=ERoneToMany;rounded=0;exitX=0;exitY=0.25;exitDx=0;exitDy=0;" edge="1" parent="1" source="KlasFGh7atZoeb_XZy3V-7" target="kPW2HSagZ7D2L_FUB9F4-3">
          <mxGeometry width="100" height="100" relative="1" as="geometry">
            <mxPoint x="172" y="-75" as="sourcePoint" />
            <mxPoint x="297" y="-202" as="targetPoint" />
          </mxGeometry>
        </mxCell>
        <mxCell id="KlasFGh7atZoeb_XZy3V-27" value="" style="edgeStyle=entityRelationEdgeStyle;fontSize=12;html=1;endArrow=ERoneToMany;rounded=0;entryX=1;entryY=0.25;entryDx=0;entryDy=0;exitX=0;exitY=0.25;exitDx=0;exitDy=0;" edge="1" parent="1" source="KlasFGh7atZoeb_XZy3V-11" target="KlasFGh7atZoeb_XZy3V-3">
          <mxGeometry width="100" height="100" relative="1" as="geometry">
            <mxPoint x="330" y="97" as="sourcePoint" />
            <mxPoint x="455" y="-30" as="targetPoint" />
          </mxGeometry>
        </mxCell>
        <mxCell id="KlasFGh7atZoeb_XZy3V-28" value="" style="edgeStyle=entityRelationEdgeStyle;fontSize=12;html=1;endArrow=ERoneToMany;rounded=0;exitX=0.009;exitY=0.077;exitDx=0;exitDy=0;exitPerimeter=0;entryX=1;entryY=0.25;entryDx=0;entryDy=0;" edge="1" parent="1" source="kPW2HSagZ7D2L_FUB9F4-1" target="KlasFGh7atZoeb_XZy3V-13">
          <mxGeometry width="100" height="100" relative="1" as="geometry">
            <mxPoint x="192" y="-55" as="sourcePoint" />
            <mxPoint y="-270" as="targetPoint" />
            <Array as="points">
              <mxPoint x="-80" y="-230" />
              <mxPoint x="-80" y="-220" />
            </Array>
          </mxGeometry>
        </mxCell>
      </root>
    </mxGraphModel>
  </diagram>
</mxfile>
